<svg xmlns="http://www.w3.org/2000/svg" viewBox="0 0 20 20" fill="none">
  <g clip-path="url(#clip0_182_1400)">
    <path fill-rule="evenodd" clip-rule="evenodd" d="M18.9731 7.27214L8.80379 17.3286C7.11879 18.995 4.38665 18.995 2.70165 17.3286C1.01665 15.6629 1.01665 12.9614 2.70165 11.295L11.8545 2.24358C12.9774 1.13286 14.7988 1.13286 15.9223 2.24358C17.0452 3.35429 17.0452 5.15572 15.9223 6.26572L6.76949 15.3171C6.20806 15.8729 5.29735 15.8729 4.73521 15.3171C4.17378 14.7621 4.17378 13.8614 4.73521 13.3057L12.8716 5.26072L11.8545 4.255L3.71878 12.3007C2.59521 13.4107 2.59521 15.2121 3.71878 16.3236C4.84164 17.4336 6.66307 17.4336 7.78664 16.3229L16.9388 7.27214C18.6238 5.60643 18.6245 2.90357 16.9395 1.23786C15.2538 -0.42857 12.5224 -0.42857 10.8374 1.23786L1.17592 10.7914L1.21165 10.8264C-0.544064 13.0579 -0.389073 16.2836 1.6845 18.3343C3.75878 20.385 7.02021 20.5386 9.27664 18.8021L9.31165 18.8371L19.9902 8.27786L18.9731 7.27214Z" fill="currentColor"/>
  </g>
  <defs>
    <clipPath id="clip0_182_1400">
      <rect width="20" height="20" fill="currentColor"/>
    </clipPath>
  </defs>
</svg>