<svg xmlns="http://www.w3.org/2000/svg" viewBox="0 0 41 40" fill="none">
  <path d="M25.5002 3.33334H15.5002C14.5797 3.33334 13.8335 4.07954 13.8335 5.00001V8.33334C13.8335 9.25382 14.5797 10 15.5002 10H25.5002C26.4206 10 27.1668 9.25382 27.1668 8.33334V5.00001C27.1668 4.07954 26.4206 3.33334 25.5002 3.33334Z" stroke="#323231" stroke-width="2" stroke-linecap="round" stroke-linejoin="round"/>
  <path d="M27.1665 6.66666H30.4998C31.3839 6.66666 32.2317 7.01785 32.8569 7.64297C33.482 8.26809 33.8332 9.11593 33.8332 9.99999V33.3333C33.8332 34.2174 33.482 35.0652 32.8569 35.6903C32.2317 36.3155 31.3839 36.6667 30.4998 36.6667H10.4998C9.61578 36.6667 8.76794 36.3155 8.14281 35.6903C7.51769 35.0652 7.1665 34.2174 7.1665 33.3333V9.99999C7.1665 9.11593 7.51769 8.26809 8.14281 7.64297C8.76794 7.01785 9.61578 6.66666 10.4998 6.66666H13.8332" stroke="#323231" stroke-width="2" stroke-linecap="round" stroke-linejoin="round"/>
  <path d="M20.5 18.3333H27.1667" stroke="#323231" stroke-width="2" stroke-linecap="round" stroke-linejoin="round"/>
  <path d="M20.5 26.6667H27.1667" stroke="#323231" stroke-width="2" stroke-linecap="round" stroke-linejoin="round"/>
  <path d="M13.8335 18.3333H13.8502" stroke="#323231" stroke-width="2" stroke-linecap="round" stroke-linejoin="round"/>
  <path d="M13.8335 26.6667H13.8502" stroke="#323231" stroke-width="2" stroke-linecap="round" stroke-linejoin="round"/>
</svg>