<svg xmlns="http://www.w3.org/2000/svg" viewBox="0 0 20 20" fill="none">
  <mask id="mask0_188_2654" style="mask-type:alpha" maskUnits="userSpaceOnUse" x="0" y="0" width="20" height="20">
    <rect width="20" height="20" fill="#D9D9D9"/>
  </mask>
  <g mask="url(#mask0_188_2654)">
    <path d="M10 18.334C8.95833 18.334 7.98264 18.1361 7.07292 17.7402C6.16319 17.3444 5.37153 16.8097 4.69792 16.1361C4.02431 15.4625 3.48958 14.6708 3.09375 13.7611C2.69792 12.8513 2.5 11.8757 2.5 10.834C2.5 9.79232 2.69792 8.81662 3.09375 7.9069C3.48958 6.99718 4.02431 6.20551 4.69792 5.5319C5.37153 4.85829 6.16319 4.32357 7.07292 3.92773C7.98264 3.5319 8.95833 3.33398 10 3.33398C11.0417 3.33398 12.0174 3.5319 12.9271 3.92773C13.8368 4.32357 14.6285 4.85829 15.3021 5.5319C15.9757 6.20551 16.5104 6.99718 16.9063 7.9069C17.3021 8.81662 17.5 9.79232 17.5 10.834C17.5 11.8757 17.3021 12.8513 16.9063 13.7611C16.5104 14.6708 15.9757 15.4625 15.3021 16.1361C14.6285 16.8097 13.8368 17.3444 12.9271 17.7402C12.0174 18.1361 11.0417 18.334 10 18.334ZM12.3333 14.334L13.5 13.1673L10.8333 10.5007V6.66732H9.16667V11.1673L12.3333 14.334ZM4.66667 1.95898L5.83333 3.12565L2.29167 6.66732L1.125 5.50065L4.66667 1.95898ZM15.3333 1.95898L18.875 5.50065L17.7083 6.66732L14.1667 3.12565L15.3333 1.95898ZM10 16.6673C11.625 16.6673 13.0035 16.1013 14.1354 14.9694C15.2674 13.8375 15.8333 12.459 15.8333 10.834C15.8333 9.20899 15.2674 7.83051 14.1354 6.69857C13.0035 5.56662 11.625 5.00065 10 5.00065C8.375 5.00065 6.99653 5.56662 5.86458 6.69857C4.73264 7.83051 4.16667 9.20899 4.16667 10.834C4.16667 12.459 4.73264 13.8375 5.86458 14.9694C6.99653 16.1013 8.375 16.6673 10 16.6673Z" fill="currentColor"/>
  </g>
</svg>