<svg viewBox="0 0 294 84" fill="none" xmlns="http://www.w3.org/2000/svg">
<path d="M3.23153 25.3206H0.629395V6.74611H4.65087L10.0654 21.1145L15.4799 6.74611H19.4488V25.3206H16.8993L17.0833 9.20181L11.0116 25.3206H9.09289L3.04754 9.20181L3.23153 25.3206ZM21.9142 15.9158C21.9142 13.3295 22.913 10.9521 24.8318 9.07118C26.6191 7.32085 28.8532 6.38037 31.4291 6.38037C34.0575 6.38037 36.2917 7.29473 38.1315 9.09731C40.0241 10.9521 40.9966 13.2772 40.9966 15.9158C40.9966 18.5805 40.1555 20.801 38.5258 22.5514C36.6071 24.6152 34.2152 25.6863 31.4028 25.6863C28.6167 25.6863 26.2248 24.6152 24.3324 22.4991C22.7553 20.7488 21.9142 18.476 21.9142 15.9158ZM24.7266 15.9419C24.7266 17.9012 25.41 19.6777 26.6191 20.9317C27.907 22.264 29.668 23.0216 31.4028 23.0216C35.2666 23.0216 38.2104 19.9389 38.2104 15.8897C38.2104 14.1916 37.5796 12.598 36.3705 11.2918C34.9774 9.80267 33.4004 9.07118 31.4028 9.07118C29.6418 9.07118 28.0121 9.75042 26.7768 11.0044C25.4626 12.3367 24.7266 14.1654 24.7266 15.9419ZM45.4795 19.9128L43.3767 25.3206H40.5118L47.8187 6.74611H50.4472L57.7542 25.3206H54.7841L52.7339 19.9128H45.4795ZM51.7614 17.3004L49.133 10.2468L46.452 17.3004H51.7614ZM75.2857 20.6704C73.6561 23.9098 70.7122 25.6863 66.9273 25.6863C64.1412 25.6863 61.7494 24.6152 59.8569 22.4991C58.2798 20.7488 57.4388 18.476 57.4388 15.9158C57.4388 13.3295 58.4375 10.9783 60.3563 9.07118C62.1436 7.32085 64.3778 6.38037 66.9536 6.38037C70.7911 6.38037 73.8138 8.26133 75.2857 11.553H72.1053C70.8962 9.90717 69.1352 9.07118 66.9273 9.07118C65.1663 9.07118 63.5367 9.75042 62.3013 11.0044C60.9871 12.3367 60.2512 14.1654 60.2512 15.9419C60.2512 17.9012 60.9345 19.6777 62.1436 20.9317C63.4315 22.264 65.1926 23.0216 66.9273 23.0216C69.0826 23.0216 70.8437 22.1856 71.9476 20.6704H75.2857ZM84.2211 18.6327V25.3206H81.5138V18.476L75.7839 6.74611H78.8066L82.9069 15.6807L87.0072 6.74611H90.0036L84.2211 18.6327ZM93.7141 25.3206H91.0069V6.74611H96.3951C100.942 6.74611 103.308 8.91444 103.308 12.7547C103.308 15.7329 101.179 18.0319 97.9984 18.1886L103.308 25.3206H99.9172L93.7141 16.6995V25.3206ZM93.7141 16.386H95.1072C98.8132 16.386 100.653 15.2104 100.653 12.7286C100.653 10.2468 99.0235 9.25406 95.738 9.25406H93.7141V16.386ZM116.097 25.3206H113.39V6.74611H116.176L125.349 20.801L125.217 6.74611H127.898V25.3206H125.296L115.913 10.8476L116.097 25.3206ZM140.85 25.3206H131.152V6.74611H140.85V9.22793H133.859V14.7663H140.85V17.1959H133.859V22.7604H140.85V25.3206ZM152.997 25.3206H144.166V6.74611H146.873V22.7604H152.997V25.3206ZM154.178 19.9651H156.623C156.701 21.9244 157.884 23.1261 159.54 23.1261C161.406 23.1261 162.615 21.8983 162.615 19.9651C162.615 17.9012 161.485 17.3526 159.435 16.7256C158.095 16.3599 156.833 16.1509 155.676 14.5834C155.046 13.7475 154.73 12.807 154.73 11.7359C154.73 8.5487 156.807 6.4065 159.882 6.4065C162.721 6.4065 164.613 8.2352 164.797 11.344H162.274C162.195 9.85492 161.17 8.86219 159.803 8.86219C158.279 8.86219 157.28 10.0117 157.28 11.5791C157.28 12.1539 157.464 12.6502 157.805 13.0682C158.594 13.9826 159.934 14.0348 161.459 14.5573C163.903 15.4717 165.218 17.2481 165.218 19.7038C165.218 23.2567 163.01 25.6863 159.593 25.6863C156.439 25.6863 154.231 23.4396 154.178 19.9651ZM166.811 15.9158C166.811 13.3295 167.81 10.9521 169.728 9.07118C171.516 7.32085 173.75 6.38037 176.326 6.38037C178.954 6.38037 181.188 7.29473 183.028 9.09731C184.921 10.9521 185.893 13.2772 185.893 15.9158C185.893 18.5805 185.052 20.801 183.422 22.5514C181.504 24.6152 179.112 25.6863 176.299 25.6863C173.513 25.6863 171.121 24.6152 169.229 22.4991C167.652 20.7488 166.811 18.476 166.811 15.9158ZM169.623 15.9419C169.623 17.9012 170.307 19.6777 171.516 20.9317C172.804 22.264 174.565 23.0216 176.299 23.0216C180.163 23.0216 183.107 19.9389 183.107 15.8897C183.107 14.1916 182.476 12.598 181.267 11.2918C179.874 9.80267 178.297 9.07118 176.299 9.07118C174.538 9.07118 172.909 9.75042 171.673 11.0044C170.359 12.3367 169.623 14.1654 169.623 15.9419ZM191.048 25.3206H188.34V6.74611H191.126L200.3 20.801L200.168 6.74611H202.849V25.3206H200.247L190.864 10.8476L191.048 25.3206Z" fill="#323231"/>
<path d="M91.7665 44.4778H103.331C103.069 50.3819 99.0997 54.2222 93.7903 54.2222C91.0042 54.2222 88.6124 53.1511 86.7199 51.035C85.1428 49.2847 84.3018 47.0119 84.3018 44.4517C84.3018 41.8654 85.3006 39.488 87.2193 37.6071C89.0329 35.8045 91.2671 34.9163 94.0006 34.9163C97.8118 34.9163 100.756 36.7711 102.201 39.9844H98.8632C97.6278 38.4169 95.8931 37.6071 93.7903 37.6071C92.0293 37.6071 90.3997 38.2863 89.1643 39.5403C87.8501 40.8726 87.1142 42.7013 87.1142 44.4778C87.1142 46.4371 87.7976 48.2136 89.0066 49.4676C90.2945 50.7999 92.0556 51.5575 93.7903 51.5575C96.6027 51.5575 98.8106 50.0684 100.23 47.0902H91.7665V44.4778ZM108.355 48.4487L106.252 53.8565H103.387L110.694 35.282H113.322L120.629 53.8565H117.659L115.609 48.4487H108.355ZM114.637 45.8363L112.008 38.7827L109.327 45.8363H114.637ZM120.644 48.5009H123.089C123.168 50.4603 124.35 51.662 126.006 51.662C127.872 51.662 129.081 50.4342 129.081 48.5009C129.081 46.4371 127.951 45.8885 125.901 45.2615C124.561 44.8958 123.299 44.6868 122.142 43.1193C121.512 42.2833 121.196 41.3429 121.196 40.2718C121.196 37.0846 123.273 34.9424 126.348 34.9424C129.187 34.9424 131.079 36.7711 131.263 39.8799H128.74C128.661 38.3908 127.636 37.3981 126.269 37.3981C124.745 37.3981 123.746 38.5476 123.746 40.115C123.746 40.6898 123.93 41.1861 124.271 41.6041C125.06 42.5185 126.4 42.5707 127.925 43.0932C130.369 44.0076 131.684 45.784 131.684 48.2397C131.684 51.7926 129.476 54.2222 126.059 54.2222C122.905 54.2222 120.697 51.9755 120.644 48.5009ZM136.798 53.8565H134.118V35.282H138.454C140.294 35.282 141.714 35.3604 142.923 36.0657C144.473 36.954 145.472 38.7565 145.472 40.7159C145.472 44.0598 143.08 46.3849 138.954 46.3849H136.798V53.8565ZM136.798 43.9031H138.77C141.425 43.9031 142.739 43.0671 142.739 40.8726C142.739 38.7304 141.451 37.7638 138.849 37.7638H136.798V43.9031ZM148.679 48.4487L146.577 53.8565H143.712L151.019 35.282H153.647L160.954 53.8565H157.984L155.934 48.4487H148.679ZM154.961 45.8363L152.333 38.7827L149.652 45.8363H154.961ZM164.675 53.8565H161.967V35.282H167.356C171.903 35.282 174.268 37.4503 174.268 41.2906C174.268 44.2688 172.139 46.5677 168.959 46.7245L174.268 53.8565H170.878L164.675 45.2354V53.8565ZM164.675 44.9219H166.068C169.774 44.9219 171.614 43.7463 171.614 41.2645C171.614 38.7827 169.984 37.7899 166.699 37.7899H164.675V44.9219ZM179.537 53.8565H176.829V35.282H179.537V53.8565ZM185.492 53.8565H182.784V35.282H185.571L194.744 49.3369L194.612 35.282H197.293V53.8565H194.691L185.308 39.3835L185.492 53.8565ZM203.254 53.8565H200.547V35.282H203.254V53.8565Z" fill="#323231"/>
<path d="M14.5478 75.6C13.2942 78.0919 11.0297 79.4584 8.11824 79.4584C5.97507 79.4584 4.13518 78.6345 2.67945 77.0067C1.46633 75.6603 0.819336 73.912 0.819336 71.9426C0.819336 69.9531 1.58764 68.1445 3.0636 66.6775C4.43846 65.3311 6.15704 64.6077 8.13846 64.6077C11.0904 64.6077 13.4155 66.0546 14.5478 68.5866H12.1013C11.1712 67.3206 9.8166 66.6775 8.11824 66.6775C6.7636 66.6775 5.51005 67.2 4.55977 68.1646C3.54884 69.1895 2.98272 70.5962 2.98272 71.9627C2.98272 73.4699 3.50841 74.8364 4.43846 75.801C5.42917 76.8259 6.78382 77.4086 8.11824 77.4086C9.77617 77.4086 11.1308 76.7656 11.98 75.6H14.5478ZM21.7271 73.7914C21.7271 72.2641 22.2528 70.9177 23.2637 69.8526C24.3555 68.6871 25.7708 68.044 27.2468 68.044C28.8238 68.044 30.1784 68.6067 31.2703 69.712C32.3418 70.7971 32.9282 72.2038 32.9282 73.6507C32.9282 75.1378 32.3621 76.6048 31.4118 77.6498C30.32 78.8354 28.9249 79.4785 27.3478 79.4785C25.7708 79.4785 24.4162 78.9158 23.3446 77.7904C22.3134 76.7254 21.7271 75.2383 21.7271 73.7914ZM23.7489 73.7713C23.7489 75.9416 25.3058 77.5493 27.3478 77.5493C29.3293 77.5493 30.9063 75.9617 30.9063 73.7512C30.9063 71.5206 29.3293 69.9732 27.3276 69.9732C25.3664 69.9732 23.7489 71.5407 23.7489 73.7713ZM42.3616 79.177H40.4004V68.3857H42.2808V69.6115C43.1097 68.6268 44.06 68.2048 45.3135 68.2048C48.1239 68.2048 49.7212 69.8928 49.7212 73.0278V79.177H47.76V73.4498C47.76 71.179 46.931 70.0737 45.1316 70.0737C43.0491 70.0737 42.3616 71.4804 42.3616 74.2737V79.177ZM58.4629 79.177V70.1541H56.9263V68.3857H58.4629V64.889H60.4039V68.3857H61.9405V70.1541H60.4039V79.177H58.4629ZM77.9237 79.177V77.8507C76.9128 78.8957 75.6592 79.4182 74.2843 79.4182C70.9887 79.4182 68.6029 76.9665 68.6029 73.7311C68.6029 72.2239 69.1488 70.8172 70.1598 69.7723C71.2516 68.6268 72.5253 68.1043 74.163 68.1043C75.639 68.1043 76.8925 68.6268 77.9237 69.6919V68.3857H79.9051V79.177H77.9237ZM70.6248 73.711C70.6248 75.9617 72.3434 77.5694 74.3854 77.5694C76.286 77.5694 78.0248 75.8613 78.0248 73.8517C78.0248 71.6613 76.286 69.9933 74.345 69.9933C72.3231 69.9933 70.6248 71.601 70.6248 73.711ZM89.8664 77.8507V79.177H87.885V64.889H89.8462V69.6919C90.8975 68.6268 92.1511 68.1043 93.6271 68.1043C95.2648 68.1043 96.5385 68.6268 97.6303 69.7723C98.6413 70.8172 99.2074 72.2239 99.2074 73.7311C99.2074 76.9665 96.8014 79.4182 93.5057 79.4182C92.1309 79.4182 90.8773 78.8957 89.8664 77.8507ZM89.7855 73.8517C89.7855 75.8613 91.5243 77.5694 93.4249 77.5694C95.4669 77.5694 97.1653 75.9617 97.1653 73.711C97.1653 71.601 95.4467 69.9933 93.4451 69.9933C91.5041 69.9933 89.7855 71.6613 89.7855 73.8517ZM106.743 79.177V68.3857H108.684V79.177H106.743ZM108.684 67.1196H106.743V64.889H108.684V67.1196ZM116.793 79.177V64.889H118.734V79.177H116.793ZM126.843 79.177V68.3857H128.784V79.177H126.843ZM128.784 67.1196H126.843V64.889H128.784V67.1196ZM145.668 79.177V77.8507C144.657 78.8957 143.403 79.4182 142.028 79.4182C138.733 79.4182 136.347 76.9665 136.347 73.7311C136.347 72.2239 136.893 70.8172 137.904 69.7723C138.996 68.6268 140.269 68.1043 141.907 68.1043C143.383 68.1043 144.637 68.6268 145.688 69.6919V64.889H147.649V79.177H145.668ZM138.369 73.711C138.369 75.9617 140.087 77.5694 142.129 77.5694C144.03 77.5694 145.769 75.8613 145.769 73.8517C145.769 71.6613 144.03 69.9933 142.089 69.9933C140.067 69.9933 138.369 71.601 138.369 73.711ZM164.465 79.177V77.8507C163.454 78.8957 162.2 79.4182 160.826 79.4182C157.53 79.4182 155.144 76.9665 155.144 73.7311C155.144 72.2239 155.69 70.8172 156.701 69.7723C157.793 68.6268 159.066 68.1043 160.704 68.1043C162.18 68.1043 163.434 68.6268 164.465 69.6919V68.3857H166.446V79.177H164.465ZM157.166 73.711C157.166 75.9617 158.885 77.5694 160.927 77.5694C162.827 77.5694 164.566 75.8613 164.566 73.8517C164.566 71.6613 162.827 69.9933 160.886 69.9933C158.864 69.9933 157.166 71.601 157.166 73.711ZM183.262 79.177V77.8507C182.251 78.8957 180.997 79.4182 179.622 79.4182C176.327 79.4182 173.941 76.9665 173.941 73.7311C173.941 72.2239 174.487 70.8172 175.498 69.7723C176.59 68.6268 177.863 68.1043 179.501 68.1043C180.977 68.1043 182.231 68.6268 183.282 69.6919V64.889H185.243V79.177H183.262ZM175.963 73.711C175.963 75.9617 177.681 77.5694 179.723 77.5694C181.624 77.5694 183.363 75.8613 183.363 73.8517C183.363 71.6613 181.624 69.9933 179.683 69.9933C177.661 69.9933 175.963 71.601 175.963 73.711ZM194.739 74.4948C195.063 76.3235 196.519 77.5292 198.298 77.5292C199.592 77.5292 200.704 76.8861 201.331 75.7608H203.534C202.523 78.1723 200.663 79.4584 198.298 79.4584C196.701 79.4584 195.366 78.8957 194.295 77.7703C193.263 76.7053 192.677 75.2182 192.677 73.7713C192.677 72.244 193.203 70.9177 194.214 69.8325C195.305 68.6469 196.68 68.0641 198.257 68.0641C200.158 68.0641 201.877 68.9684 202.948 70.5761C203.595 71.5608 203.878 72.7062 203.878 74.1933C203.878 74.2938 203.878 74.3943 203.878 74.4948H194.739ZM201.735 72.7464C201.25 70.978 199.996 69.9531 198.318 69.9531C196.62 69.9531 195.265 71.0182 194.8 72.7464H201.735Z" fill="#323231"/>
<path d="M293.787 0H209.273V84H293.787V0Z" fill="#F6BE25"/>
<path d="M251.456 9.15738e-05L209.273 41.9272L251.456 83.8544L293.64 41.9272L251.456 9.15738e-05Z" fill="white"/>
<path d="M251.784 27.1242L236.616 42.2006L251.784 57.2769L266.953 42.2005L251.784 27.1242Z" fill="#4D4E4C"/>
<path d="M251.784 27.1242L236.616 42.2006L251.784 57.2769L266.953 42.2005L251.784 27.1242Z" fill="#4D4E4C"/>
<path d="M267 42.2L287.658 25.0723L293.897 42.7994L267 42.2Z" fill="#F6BE25"/>
</svg>