<svg xmlns="http://www.w3.org/2000/svg" viewBox="0 0 20 20" fill="none">
  <path d="M13.4526 11.1037L13.8468 10.7059L12.9315 9.7716L12.5375 10.1694L13.4526 11.1037ZM15.1704 10.5393L16.8236 11.4516L17.4435 10.2941L15.7903 9.38178L15.1704 10.5393ZM17.1418 13.2647L15.9126 14.5054L16.8277 15.4397L18.057 14.199L17.1418 13.2647ZM15.1635 14.9048C13.9089 15.0235 10.6629 14.9177 7.14847 11.3706L6.23327 12.3049C10.0684 16.1757 13.7186 16.3648 15.284 16.2167L15.1635 14.9048ZM7.14847 11.3706C3.79848 7.9894 3.24356 5.14558 3.17448 3.91183L1.87859 3.98659C1.96552 5.53938 2.65265 8.69095 6.23327 12.3049L7.14847 11.3706ZM8.33857 5.94204L8.58674 5.69154L7.67158 4.75725L7.42339 5.00774L8.33857 5.94204ZM8.7843 2.49851L7.69317 1.019L6.6541 1.80859L7.74522 3.28811L8.7843 2.49851ZM4.02332 0.696974L2.66511 2.06782L3.58031 3.00212L4.93852 1.63127L4.02332 0.696974ZM7.88098 5.47489C7.42339 5.00774 7.42277 5.00837 7.42215 5.009C7.42194 5.00921 7.42132 5.00985 7.42089 5.01028C7.42005 5.01115 7.41918 5.01203 7.41831 5.01294C7.41655 5.01475 7.41473 5.01664 7.41286 5.01861C7.40912 5.02255 7.40515 5.02682 7.40098 5.03143C7.39263 5.04062 7.38347 5.05114 7.37366 5.06303C7.35404 5.08679 7.33181 5.11605 7.30844 5.15105C7.2616 5.22122 7.21057 5.314 7.16726 5.43068C7.07888 5.66876 7.03151 5.98261 7.0909 6.37124C7.20706 7.13127 7.72272 8.13521 9.04363 9.46839L9.9588 8.53408C8.72268 7.28644 8.42822 6.52719 8.37353 6.16926C8.34748 5.99891 8.37448 5.91507 8.38192 5.89522C8.38642 5.88294 8.38858 5.88169 8.38305 5.89008C8.38028 5.89418 8.37569 5.9006 8.36851 5.90925C8.36496 5.91358 8.36072 5.91848 8.35579 5.92395C8.35328 5.92668 8.35068 5.92955 8.34774 5.93256C8.34636 5.93407 8.34488 5.93561 8.34333 5.93719C8.34255 5.93798 8.34177 5.93878 8.34099 5.93959C8.34064 5.93999 8.34004 5.94061 8.33978 5.94081C8.33917 5.94143 8.33857 5.94204 7.88098 5.47489ZM9.04363 9.46839C10.365 10.802 11.3586 11.321 12.1086 11.4379C12.4919 11.4975 12.8009 11.4499 13.0353 11.3613C13.1502 11.3178 13.2417 11.2666 13.311 11.2195C13.3456 11.196 13.3745 11.1736 13.3979 11.1538C13.4097 11.144 13.4201 11.1347 13.4292 11.1263C13.4338 11.1221 13.438 11.1181 13.4419 11.1144C13.4439 11.1124 13.4457 11.1106 13.4475 11.1088C13.4484 11.1079 13.4492 11.1071 13.4501 11.1062C13.4505 11.1057 13.4512 11.1051 13.4514 11.105C13.452 11.1043 13.4526 11.1037 12.995 10.6365C12.5375 10.1694 12.5381 10.1688 12.5387 10.1682C12.5388 10.168 12.5394 10.1674 12.5399 10.167C12.5407 10.1662 12.5414 10.1654 12.5422 10.1646C12.5439 10.1631 12.5453 10.1616 12.5468 10.1601C12.5498 10.1572 12.5527 10.1546 12.5554 10.152C12.5607 10.1471 12.5656 10.1428 12.5699 10.1393C12.5784 10.1321 12.5847 10.1275 12.5886 10.1248C12.5966 10.1193 12.595 10.1218 12.5822 10.1266C12.561 10.1346 12.4761 10.1621 12.3055 10.1355C11.9478 10.0799 11.1946 9.78126 9.9588 8.53408L9.04363 9.46839ZM7.69317 1.019C6.81114 -0.17697 5.0767 -0.366213 4.02332 0.696974L4.93852 1.63127C5.39859 1.16691 6.2157 1.21417 6.6541 1.80859L7.69317 1.019ZM3.17448 3.91183C3.15746 3.60782 3.29482 3.29026 3.58031 3.00212L2.66511 2.06782C2.20015 2.53711 1.83462 3.20141 1.87859 3.98659L3.17448 3.91183ZM15.9126 14.5054C15.6748 14.7454 15.4198 14.8806 15.1635 14.9048L15.284 16.2167C15.9197 16.1565 16.4405 15.8305 16.8277 15.4397L15.9126 14.5054ZM8.58674 5.69154C9.43865 4.83169 9.50199 3.47164 8.7843 2.49851L7.74522 3.28811C8.09437 3.76153 8.04245 4.38292 7.67158 4.75725L8.58674 5.69154ZM16.8236 11.4516C17.5312 11.8421 17.6415 12.7603 17.1418 13.2647L18.057 14.199C19.2168 13.0284 18.8592 11.0752 17.4435 10.2941L16.8236 11.4516ZM13.8468 10.7059C14.1791 10.3706 14.7139 10.2875 15.1704 10.5393L15.7903 9.38178C14.8526 8.86434 13.6889 9.00725 12.9315 9.7716L13.8468 10.7059Z" fill="currentColor"/>
</svg>